<svg width="107" height="106" viewBox="0 0 107 106" fill="none" xmlns="http://www.w3.org/2000/svg">
<path d="M85.3648 65.826C85.3648 55.0773 85.0195 44.2905 85.4415 33.5419C85.6717 27.1003 81.72 22.7551 77.4997 21.6498C70.6705 19.8583 63.9948 24.8896 63.9948 31.9029C63.9948 34.9903 63.9564 38.0777 63.9948 41.2032C63.9948 42.0417 63.8413 42.3466 62.8822 42.3466C56.5134 42.3085 50.1446 42.3085 43.7758 42.3466C43.2387 42.3466 42.7016 42.3848 42.7399 41.5843C42.9318 36.0194 42.2412 30.4545 43.5073 24.9277C44.8884 19.0579 47.8043 14.1028 51.9094 9.64329C65.1458 -4.72636 91.6568 -3.58288 102.936 16.7328C109.574 28.7012 107.387 44.1762 97.6036 54.0863C95.8387 55.8777 93.8821 57.5167 92.3091 59.5369C91.465 59.7656 91.1197 60.5279 90.5058 61.0234C88.7794 62.548 87.3598 64.53 85.3648 65.826Z" fill="#2852D6"/>
<path d="M21.3316 40.0978C21.3316 46.9587 21.37 53.8195 21.37 60.6803C21.37 65.1399 21.37 69.6375 21.37 74.0971C21.37 79.8145 26.0123 84.5789 31.6137 84.6552C37.7523 84.7314 42.5481 80.31 42.7016 74.3258C42.7783 71.1241 42.7399 67.9604 42.7016 64.7587C42.7016 63.8439 42.9318 63.539 43.8909 63.539C50.2213 63.5771 56.5518 63.5771 62.8822 63.539C63.6111 63.539 64.0332 63.6534 63.9948 64.53C63.8413 68.9896 64.2634 73.4872 63.7262 77.9468C62.8438 85.3031 59.6211 91.516 54.4032 96.776C48.303 102.913 40.7832 105.886 32.2276 105.962C18.0705 106.076 6.06184 97.1953 1.87993 84.6933C-2.34035 72.1151 0.422012 60.8709 9.745 51.3039C11.3564 49.6649 13.0829 48.1784 14.5408 46.3869C14.6942 46.3107 14.8861 46.2345 15.0012 46.1201C17.1497 44.1762 19.0296 41.9274 21.3316 40.0978Z" fill="#2852D6"/>
<path d="M85.3648 65.826C87.3598 64.4919 88.741 62.548 90.5442 60.9853C91.1197 60.4898 91.5034 59.7274 92.3474 59.4987C96.3375 63.6153 101.018 67.0838 103.934 72.1532C110.955 84.274 104.471 100.702 91.043 104.742C81.9886 107.487 74.0851 105.466 67.2943 98.9486C66.5653 98.2625 65.9131 97.5002 65.1458 96.8522C64.3401 96.1661 64.5703 95.8993 65.4144 95.5563C71.3995 93.1931 76.1953 89.3053 79.8017 84.0453C83.5999 78.5948 85.4799 72.4962 85.3648 65.826Z" fill="#1FC532"/>
<path d="M21.3316 40.0978C19.0296 41.9274 17.1497 44.1381 15.0395 46.1582C14.9244 46.2726 14.7326 46.3488 14.5791 46.425C10.5123 42.3466 5.75492 38.8019 2.95419 33.6181C-4.06682 20.6969 2.95419 4.49766 17.2648 0.838543C25.5519 -1.25783 32.9566 0.762311 39.2486 6.63214C40.3612 7.66127 41.5506 8.61416 42.9318 9.79575C38.558 11.4728 35.1051 13.4549 32.1125 16.1611C26.3959 21.2686 22.9813 27.5958 21.7536 35.1427C21.4467 36.7817 21.5234 38.4588 21.3316 40.0978Z" fill="#20C533"/>
</svg>
