<svg width="50" height="50" viewBox="0 0 50 50" fill="none" xmlns="http://www.w3.org/2000/svg">
<path d="M25 35C25.7083 35 26.3025 34.76 26.7825 34.28C27.2608 33.8017 27.5 33.2083 27.5 32.5V24.5L29.75 26.75C30.2083 27.2083 30.7917 27.4375 31.5 27.4375C32.2083 27.4375 32.7917 27.2083 33.25 26.75C33.7083 26.2917 33.9375 25.7083 33.9375 25C33.9375 24.2917 33.7083 23.7083 33.25 23.25L26.75 16.75C26.5 16.5 26.2292 16.3225 25.9375 16.2175C25.6458 16.1142 25.3333 16.0625 25 16.0625C24.6667 16.0625 24.3542 16.1142 24.0625 16.2175C23.7708 16.3225 23.5 16.5 23.25 16.75L16.75 23.25C16.2917 23.7083 16.0625 24.2917 16.0625 25C16.0625 25.7083 16.2917 26.2917 16.75 26.75C17.2083 27.2083 17.7917 27.4375 18.5 27.4375C19.2083 27.4375 19.7917 27.2083 20.25 26.75L22.5 24.5V32.5C22.5 33.2083 22.74 33.8017 23.22 34.28C23.6983 34.76 24.2917 35 25 35ZM25 50C21.5417 50 18.2917 49.3433 15.25 48.03C12.2083 46.7183 9.5625 44.9375 7.3125 42.6875C5.0625 40.4375 3.28167 37.7917 1.97 34.75C0.656667 31.7083 0 28.4583 0 25C0 21.5417 0.656667 18.2917 1.97 15.25C3.28167 12.2083 5.0625 9.5625 7.3125 7.3125C9.5625 5.0625 12.2083 3.28083 15.25 1.9675C18.2917 0.655833 21.5417 0 25 0C28.4583 0 31.7083 0.655833 34.75 1.9675C37.7917 3.28083 40.4375 5.0625 42.6875 7.3125C44.9375 9.5625 46.7183 12.2083 48.03 15.25C49.3433 18.2917 50 21.5417 50 25C50 28.4583 49.3433 31.7083 48.03 34.75C46.7183 37.7917 44.9375 40.4375 42.6875 42.6875C40.4375 44.9375 37.7917 46.7183 34.75 48.03C31.7083 49.3433 28.4583 50 25 50ZM25 45C30.5417 45 35.2608 43.0525 39.1575 39.1575C43.0525 35.2608 45 30.5417 45 25C45 19.4583 43.0525 14.7392 39.1575 10.8425C35.2608 6.9475 30.5417 5 25 5C19.4583 5 14.74 6.9475 10.845 10.8425C6.94833 14.7392 5 19.4583 5 25C5 30.5417 6.94833 35.2608 10.845 39.1575C14.74 43.0525 19.4583 45 25 45Z" fill="#2852D6"/>
</svg>
